<svg width="46" height="46" viewBox="0 0 46 46" fill="none" xmlns="http://www.w3.org/2000/svg">
<rect x="1" y="1" width="44" height="44" rx="15" fill="white"/>
<rect x="1" y="1" width="44" height="44" rx="15" stroke="black" stroke-width="2"/>
<path d="M16 22.939C16 23.3208 16.146 23.6465 16.4492 23.9385L25.209 32.5073C25.4448 32.7544 25.7593 32.8779 26.1187 32.8779C26.8486 32.8779 27.4214 32.3164 27.4214 31.5752C27.4214 31.2158 27.2754 30.8901 27.0283 30.6431L19.1333 22.939L27.0283 15.2349C27.2754 14.9766 27.4214 14.6509 27.4214 14.2915C27.4214 13.5615 26.8486 13 26.1187 13C25.7593 13 25.4448 13.1235 25.209 13.3706L16.4492 21.9395C16.146 22.2314 16.0112 22.5571 16 22.939Z" fill="black"/>
</svg>
