<svg width="44" height="44" viewBox="0 0 44 44" fill="none" xmlns="http://www.w3.org/2000/svg">
<rect x="1" y="1" width="42" height="42" rx="11" stroke="black" stroke-width="2"/>
<path d="M34.6 22C35.3732 22 36.0073 22.6284 35.9301 23.3977C35.6194 26.4949 34.2828 29.4155 32.1115 31.6828C29.6161 34.2888 26.2109 35.8307 22.6062 35.9869C19.0015 36.1431 15.4756 34.9016 12.7641 32.5213C10.4048 30.4503 8.82052 27.6563 8.24306 24.5976C8.09962 23.8379 8.67694 23.157 9.44724 23.0901C10.2175 23.0232 10.8874 23.5966 11.0498 24.3526C11.5524 26.6919 12.7947 28.8224 14.6113 30.417C16.7805 32.3213 19.6012 33.3145 22.4849 33.1895C25.3687 33.0645 28.0929 31.831 30.0892 29.7463C31.761 28.0004 32.8144 25.7705 33.1126 23.3964C33.209 22.6293 33.8268 22 34.6 22Z" fill="black"/>
<path d="M9.4 22C8.6268 22 7.99275 21.3716 8.06994 20.6023C8.22798 19.0272 8.65238 17.4869 9.32824 16.048C10.0041 14.6091 10.9186 13.2989 12.0299 12.1716C12.5727 11.621 13.4612 11.7077 13.9548 12.3028C14.4485 12.8979 14.3587 13.7751 13.8299 14.3391C13.0281 15.1942 12.3634 16.1721 11.8626 17.2384C11.3618 18.3046 11.0335 19.4405 10.8874 20.6036C10.791 21.3708 10.1732 22 9.4 22Z" fill="#333333"/>
<path d="M14.5904 11.8089C14.1357 11.1836 14.2711 10.3012 14.9387 9.91119C16.8755 8.7799 19.0563 8.13037 21.2964 8.01767C22.0686 7.97882 22.6647 8.64333 22.6263 9.41558C22.5879 10.1878 21.9287 10.7736 21.1577 10.8317C19.557 10.9524 18.0004 11.416 16.5945 12.1908C15.9173 12.5639 15.0451 12.4343 14.5904 11.8089Z" fill="#4B4B4B"/>
<path d="M23.6541 9.50905C23.7556 8.74254 24.4618 8.19646 25.2143 8.37399C26.3889 8.65106 27.5228 9.07888 28.5876 9.64674C29.2699 10.0106 29.4393 10.887 29.0092 11.5295C28.5791 12.172 27.7126 12.3354 27.0214 11.9887C26.3259 11.6399 25.5958 11.3644 24.8431 11.1669C24.0953 10.9706 23.5526 10.2756 23.6541 9.50905Z" fill="#6A6A6A"/>
<path d="M30.0833 12.3346C30.5793 11.7415 31.4681 11.6582 32.0087 12.211C32.6886 12.9061 33.2943 13.6703 33.8159 14.491C34.2306 15.1436 33.9466 15.9898 33.2558 16.3373C32.5651 16.6848 31.7305 16.4004 31.2996 15.7584C30.9703 15.2678 30.6027 14.804 30.2002 14.3714C29.6736 13.8053 29.5873 12.9277 30.0833 12.3346Z" fill="#939393"/>
<path d="M33.5997 17.08C34.3115 16.7781 35.1406 17.109 35.37 17.8474C35.5477 18.4196 35.6885 19.0027 35.7915 19.5931C35.9245 20.3547 35.3378 21.0275 34.5666 21.0838C33.7955 21.14 33.1336 20.5574 32.9817 19.7992C32.9242 19.5124 32.8554 19.2278 32.7757 18.9463C32.5649 18.2024 32.8879 17.3819 33.5997 17.08Z" fill="#AAAAAA"/>
</svg>
